<svg width="33" height="33" viewBox="0 0 33 33" fill="none" xmlns="http://www.w3.org/2000/svg">
<rect width="32.8597" height="32.4636" rx="6" fill="#F4FCF8"/>
<path d="M5.82142 5.01794C7.7069 6.55912 10.1242 7.8164 17.0618 10.7568C25.7881 14.4881 28.012 15.9685 28.6889 18.5236C28.9789 19.5375 28.9548 19.6997 28.1812 21.5654C27.2143 23.8974 27.1418 25.3575 27.9153 26.6148C28.3746 27.3854 28.3746 27.6896 27.8912 27.6896C27.7703 27.6896 27.456 27.2637 27.1901 26.7567C26.4408 25.3575 26.5133 23.6946 27.4319 21.6465C28.3021 19.6997 28.3504 18.99 27.7219 17.8138C26.6825 15.9076 24.3861 14.5287 16.9167 11.4057C10.7768 8.83034 8.52877 7.73529 6.35323 6.25494C5.43466 5.64658 4.66113 5.18017 4.58861 5.241C4.32271 5.46407 4.99955 7.9178 5.62804 8.85062C6.98172 10.9596 9.61655 12.5008 17.0859 15.5832C20.2767 16.9013 21.7029 17.5907 22.7182 18.3816C24.0235 19.3753 24.9662 20.5109 24.7003 20.734C24.5795 20.8556 23.3708 19.7809 23.3467 19.5375C23.3467 19.2739 20.3493 17.611 18.633 16.9013C17.6902 16.4957 15.2005 15.7251 13.0733 15.137C10.946 14.5692 8.45626 13.7783 7.51352 13.4133C6.59495 13.028 5.79725 12.7441 5.74891 12.7847C5.55552 12.9266 6.42574 14.3056 7.15093 14.9951C8.79467 16.5565 11.2845 17.611 15.7323 18.6452C19.6966 19.5578 20.3493 19.7606 21.8721 20.592C23.2742 21.3626 24.2894 22.2954 23.9993 22.559C23.9026 22.6199 23.3708 22.3157 22.7907 21.8696C20.8569 20.3689 18.7055 19.7403 14.1369 19.3753C12.614 19.2536 10.7285 19.0305 9.97914 18.8886C8.26287 18.5438 8.16618 18.8075 9.59238 19.8822C11.2361 21.1192 12.904 21.5654 17.5452 22.0318C19.8175 22.2549 21.8238 22.7618 22.7182 23.3296C23.5884 23.8974 22.9116 23.8772 21.2436 23.3093C19.89 22.8429 19.2373 22.7415 17.4243 22.7415C16.2157 22.7213 14.717 22.8024 14.0885 22.8835C13.0974 23.0254 12.9766 23.1066 13.2183 23.3499C14.1127 24.2624 16.8442 24.8505 20.1075 24.8505C22.2831 24.8505 23.5884 25.0128 23.5884 25.2764C23.5884 25.3778 22.9841 25.4589 22.2347 25.4589C20.5426 25.4589 17.4969 26.0267 17.6902 26.3106C18.222 27.0204 21.9447 27.7707 23.8543 27.5679C25.4739 27.3854 25.5947 27.284 25.1113 26.4728C24.4586 25.3575 24.4344 23.8569 25.0146 22.2549C25.2805 21.464 25.5222 20.5109 25.5222 20.1053C25.5222 18.5438 23.9268 16.9621 20.6393 15.2587C19.7449 14.7923 18.9956 14.2853 18.9956 14.1434C18.9956 14.0217 19.0681 13.9 19.1406 13.9C19.5516 13.9 22.8632 15.7454 23.9752 16.5768C26.2232 18.3208 26.6825 19.7403 25.764 22.1737C25.498 22.8835 25.2805 23.8974 25.2805 24.4044C25.2805 25.4386 25.9815 26.919 26.7792 27.649C27.1901 28.014 27.2385 28.156 26.9968 28.3588C26.755 28.5413 26.61 28.5007 26.2716 28.1154C25.8848 27.6896 25.764 27.6693 25.2805 27.8923C24.4828 28.2574 21.5337 28.2168 19.9625 27.8315C18.5363 27.4868 16.3366 26.412 16.3366 26.0673C16.3366 25.9659 16.6266 25.8239 16.9892 25.7428C18.4638 25.4995 18.6813 25.2764 17.521 25.2764C15.6114 25.2358 13.9918 24.7086 12.7832 23.6946C12.1789 23.1877 11.7921 22.701 11.8888 22.6199C12.0097 22.5185 12.7107 22.4171 13.4358 22.3765L14.7653 22.3157L13.315 22.0318C10.5351 21.5045 8.55295 20.3081 7.75525 18.6858C7.29596 17.7733 7.39265 17.6313 8.28705 17.9355C9.20561 18.2397 12.3481 18.7669 13.1458 18.7466C13.6292 18.7466 13.4358 18.6452 12.4689 18.3816C9.20561 17.4894 6.57078 15.8265 5.55552 14.0014C5.02372 13.0483 4.75782 11.5477 5.14459 11.7099C5.26545 11.7505 6.13567 12.1155 7.07841 12.5413C9.13309 13.4336 12.4931 14.5692 12.6381 14.4273C12.7107 14.3664 12.1789 14.0825 11.4537 13.7783C8.35956 12.4805 5.79725 10.5743 4.70948 8.81006C3.93595 7.5325 3.71839 3.86205 4.44358 4.004C4.54027 4.02428 5.14459 4.47041 5.82142 5.01794Z" fill="url(#paint0_linear_143_142)"/>
<defs>
<linearGradient id="paint0_linear_143_142" x1="2.45176" y1="3.02193" x2="30.2419" y2="28.8598" gradientUnits="userSpaceOnUse">
<stop stop-color="#FF5722"/>
<stop offset="1" stop-color="#1A4D3E"/>
</linearGradient>
</defs>
</svg>
