<svg width="33" height="32" viewBox="0 0 33 32" fill="none" xmlns="http://www.w3.org/2000/svg">
<path d="M25.9707 30.8284C23.4727 31.0936 18.6033 30.1122 17.9077 29.1838C17.6547 28.8124 21.6388 28.0697 23.8521 28.0697C24.8324 28.0697 25.6228 27.9636 25.6228 27.831C25.6228 27.4861 23.9154 27.2739 21.0696 27.2739C16.801 27.2739 13.228 26.5047 12.058 25.311C11.7418 24.9927 11.8999 24.8866 13.1963 24.7009C14.0184 24.5948 15.9789 24.4887 17.5598 24.5152C19.9313 24.5152 20.785 24.6478 22.5557 25.2579C24.7375 26.0007 25.6228 26.0272 24.4845 25.2845C23.3146 24.5417 20.6902 23.8786 17.7179 23.5868C11.647 22.9767 9.46523 22.3931 7.31509 20.7751C5.44954 19.3692 5.57601 19.0243 7.82101 19.4753C8.80121 19.661 11.2675 19.9528 13.2596 20.1119C19.2357 20.5894 22.0498 21.4117 24.5794 23.3746C25.3383 23.9582 26.0339 24.3561 26.1604 24.2765C26.5398 23.9316 25.2118 22.7114 23.3779 21.7035C21.3858 20.6159 20.5321 20.3506 15.3465 19.157C9.52847 17.8041 6.27164 16.4248 4.12151 14.3823C3.17292 13.4804 2.03462 11.6767 2.28757 11.491C2.35081 11.4379 3.39426 11.8093 4.59581 12.3133C5.82897 12.7907 9.08579 13.8253 11.8683 14.568C14.6508 15.3372 17.9077 16.3452 19.1408 16.8757C21.3858 17.8041 25.1989 20.0135 25.3067 20.3241C25.4952 20.6267 26.9193 22.0483 27.0773 21.8891C27.4252 21.5974 26.192 20.1119 24.4845 18.8121C23.1565 17.7776 21.291 16.8757 17.1172 15.1516C7.34671 11.1196 3.90017 9.10364 2.12948 6.34494C1.30737 5.12475 0.422016 1.91511 0.769833 1.62332C0.864691 1.54374 1.87652 2.15384 3.07807 2.94962C5.92383 4.88601 8.86445 6.31841 16.8958 9.68721C26.6663 13.7722 29.6702 15.576 31.0298 18.0694C31.8519 19.6079 31.7887 20.5363 30.6504 23.0828C29.4488 25.7619 29.354 27.9371 30.3342 29.7674C30.682 30.4305 31.093 30.9875 31.2511 30.9875C31.8835 30.9875 31.8835 30.5897 31.2828 29.5817C30.2709 27.9371 30.3658 26.0272 31.6306 22.9767C32.6424 20.5363 32.674 20.3241 32.2946 18.9978C31.4092 15.6555 28.5002 13.7192 17.0856 8.83838C8.01072 4.99212 4.84876 3.34751 2.38243 1.33154C1.49708 0.615334 0.706593 0.031765 0.580114 0.00523949C-0.368473 -0.180443 -0.0838966 4.62075 0.927933 6.29189C2.35081 8.59965 5.70249 11.0931 9.7498 12.7907C10.6984 13.1886 11.394 13.56 11.2992 13.6396C11.1094 13.8253 6.71432 12.3398 4.02665 11.1727C2.79349 10.6156 1.65518 10.1382 1.49708 10.0851C0.991169 9.87289 1.33899 11.8358 2.03462 13.0825C3.36264 15.4699 6.80918 17.645 11.0778 18.8121C12.3426 19.157 12.5956 19.2896 11.9632 19.2896C10.9197 19.3161 6.80918 18.6265 5.60763 18.2286C4.43771 17.8307 4.31123 18.0164 4.912 19.21C5.95545 21.3321 8.54826 22.8971 12.1845 23.5868L14.0817 23.9582L12.3426 24.0377C11.394 24.0908 10.4771 24.2234 10.319 24.3561C10.1925 24.4622 10.6984 25.0988 11.4889 25.7619C13.0699 27.0882 15.1884 27.7779 17.6863 27.831C19.2041 27.831 18.9195 28.1227 16.9907 28.4411C16.5164 28.5472 16.137 28.7328 16.137 28.8655C16.137 29.3164 19.0143 30.7223 20.8799 31.1732C22.9352 31.6772 26.7928 31.7303 27.8362 31.2528C28.4686 30.961 28.6267 30.9875 29.1326 31.5446C29.5753 32.0486 29.765 32.1016 30.0812 31.8629C30.3974 31.5976 30.3342 31.412 29.7966 30.9345C29.6166 30.7698 29.6522 30.667 29.1326 30.4321C28.4457 30.1216 27.2148 30.6521 27.2148 30.6521C26.9115 30.7151 26.5029 30.7684 25.9707 30.8284Z" fill="url(#paint0_linear_143_151)"/>
<defs>
<linearGradient id="paint0_linear_143_151" x1="-2.02531" y1="-1.27937" x2="34.326" y2="32.5183" gradientUnits="userSpaceOnUse">
<stop stop-color="#FF5722"/>
<stop offset="1" stop-color="#1A4D3E"/>
</linearGradient>
</defs>
</svg>
