<svg width="960" height="680" viewBox="0 0 960 680" fill="none" xmlns="http://www.w3.org/2000/svg">
  <defs>
    <linearGradient id="bg" x1="0" y1="0" x2="960" y2="680" gradientUnits="userSpaceOnUse">
      <stop offset="0" stop-color="#E8F7FF"/>
      <stop offset="1" stop-color="#FFF1F8"/>
    </linearGradient>
    <linearGradient id="nodeA" x1="0" y1="0" x2="1" y2="1">
      <stop offset="0" stop-color="#2A9FCF"/>
      <stop offset="1" stop-color="#2E43A5"/>
    </linearGradient>
    <linearGradient id="nodeB" x1="0" y1="0" x2="1" y2="1">
      <stop offset="0" stop-color="#7B35A4"/>
      <stop offset="1" stop-color="#2A9FCF"/>
    </linearGradient>
    <filter id="soft" x="-40" y="-40" width="1040" height="760" filterUnits="userSpaceOnUse" color-interpolation-filters="sRGB">
      <feGaussianBlur stdDeviation="18"/>
    </filter>
  </defs>

  <rect width="960" height="680" rx="36" fill="url(#bg)"/>

  <g opacity="0.28" filter="url(#soft)">
    <circle cx="170" cy="150" r="70" fill="#2A9FCF"/>
    <circle cx="780" cy="560" r="90" fill="#7B35A4"/>
  </g>

  <path d="M160 470C240 390 330 340 430 320C560 294 673 324 803 242" stroke="#2E43A5" stroke-width="6" stroke-linecap="round" stroke-dasharray="8 18" opacity="0.35"/>
  <path d="M175 210C300 245 381 292 446 382C500 456 558 510 722 512" stroke="#2A9FCF" stroke-width="5" stroke-linecap="round" stroke-dasharray="10 12" opacity="0.45"/>

  <g opacity="0.9">
    <line x1="180" y1="200" x2="360" y2="140" stroke="#2E43A5" stroke-width="3" opacity="0.45"/>
    <line x1="360" y1="140" x2="520" y2="210" stroke="#2E43A5" stroke-width="3" opacity="0.45"/>
    <line x1="520" y1="210" x2="700" y2="150" stroke="#2E43A5" stroke-width="3" opacity="0.45"/>
    <line x1="700" y1="150" x2="810" y2="300" stroke="#2E43A5" stroke-width="3" opacity="0.45"/>
    <line x1="520" y1="210" x2="550" y2="420" stroke="#2E43A5" stroke-width="3" opacity="0.45"/>
    <line x1="550" y1="420" x2="760" y2="470" stroke="#2E43A5" stroke-width="3" opacity="0.45"/>
    <line x1="360" y1="140" x2="260" y2="320" stroke="#2E43A5" stroke-width="3" opacity="0.45"/>
    <line x1="260" y1="320" x2="420" y2="450" stroke="#2E43A5" stroke-width="3" opacity="0.45"/>
  </g>

  <g>
    <circle cx="180" cy="200" r="30" fill="url(#nodeA)"/>
    <circle cx="360" cy="140" r="22" fill="url(#nodeB)"/>
    <circle cx="520" cy="210" r="34" fill="url(#nodeA)"/>
    <circle cx="700" cy="150" r="24" fill="url(#nodeB)"/>
    <circle cx="810" cy="300" r="28" fill="url(#nodeA)"/>
    <circle cx="550" cy="420" r="30" fill="url(#nodeB)"/>
    <circle cx="760" cy="470" r="20" fill="url(#nodeA)"/>
    <circle cx="420" cy="450" r="26" fill="url(#nodeA)"/>
    <circle cx="260" cy="320" r="20" fill="url(#nodeB)"/>
  </g>

  <g fill="#1F2D66" opacity="0.8" font-family="Inter, Arial, sans-serif" font-size="20" font-weight="700">
    <text x="140" y="268">Data</text>
    <text x="490" y="280">Models</text>
    <text x="530" y="486">Reasoning</text>
    <text x="730" y="525">Agents</text>
  </g>
</svg>
