<svg width="860" height="620" viewBox="0 0 860 620" fill="none" xmlns="http://www.w3.org/2000/svg">
  <defs>
    <linearGradient id="bg" x1="0" y1="0" x2="860" y2="620" gradientUnits="userSpaceOnUse">
      <stop offset="0" stop-color="#EAF8FF"/>
      <stop offset="1" stop-color="#FFF4FB"/>
    </linearGradient>
    <linearGradient id="shield" x1="430" y1="130" x2="430" y2="420" gradientUnits="userSpaceOnUse">
      <stop offset="0" stop-color="#2E43A5"/>
      <stop offset="1" stop-color="#2A9FCF"/>
    </linearGradient>
    <linearGradient id="chip" x1="0" y1="0" x2="1" y2="1">
      <stop offset="0" stop-color="#7B35A4"/>
      <stop offset="1" stop-color="#2E43A5"/>
    </linearGradient>
  </defs>

  <rect width="860" height="620" rx="34" fill="url(#bg)"/>

  <g opacity="0.2">
    <circle cx="140" cy="120" r="60" fill="#2A9FCF"/>
    <circle cx="740" cy="500" r="84" fill="#7B35A4"/>
  </g>

  <rect x="120" y="150" width="620" height="320" rx="26" fill="#FFFFFF" stroke="#DCEAF5" stroke-width="2"/>

  <path d="M430 134L540 178V286C540 352 494 407 430 427C366 407 320 352 320 286V178L430 134Z" fill="url(#shield)"/>
  <circle cx="430" cy="276" r="42" fill="#FFFFFF" fill-opacity="0.95"/>
  <rect x="413" y="258" width="34" height="38" rx="8" fill="#2E43A5"/>
  <path d="M420 258V247C420 241.477 424.477 237 430 237C435.523 237 440 241.477 440 247V258" stroke="#2E43A5" stroke-width="6" stroke-linecap="round"/>

  <g>
    <rect x="188" y="213" width="88" height="48" rx="12" fill="url(#chip)"/>
    <text x="212" y="244" fill="#FFFFFF" font-family="Inter, Arial, sans-serif" font-size="18" font-weight="700">MFA</text>

    <rect x="586" y="213" width="108" height="48" rx="12" fill="#2A9FCF"/>
    <text x="608" y="243" fill="#FFFFFF" font-family="Inter, Arial, sans-serif" font-size="16" font-weight="700">Captcha</text>

    <rect x="212" y="344" width="126" height="48" rx="12" fill="#2E43A5"/>
    <text x="232" y="374" fill="#FFFFFF" font-family="Inter, Arial, sans-serif" font-size="16" font-weight="700">Secure API</text>

    <rect x="538" y="344" width="136" height="48" rx="12" fill="#7B35A4"/>
    <text x="562" y="374" fill="#FFFFFF" font-family="Inter, Arial, sans-serif" font-size="16" font-weight="700">Protected</text>
  </g>
</svg>
